<?xml version="1.0" encoding="utf-8"?>
<!-- Generator: Adobe Illustrator 14.0.0, SVG Export Plug-In . SVG Version: 6.00 Build 43363)  -->
<!DOCTYPE svg PUBLIC "-//W3C//DTD SVG 1.1//EN" "http://www.w3.org/Graphics/SVG/1.1/DTD/svg11.dtd">
<svg version="1.1" id="图层_1" xmlns="http://www.w3.org/2000/svg" xmlns:xlink="http://www.w3.org/1999/xlink" x="0px" y="0px"
	 width="43.4px" height="35.6px" viewBox="0 0 43.4 35.6" enable-background="new 0 0 43.4 35.6" xml:space="preserve">
<radialGradient id="SVGID_1_" cx="391.3101" cy="1358.074" r="24.9271" fx="408.2415" fy="1339.7797" gradientTransform="matrix(0.9384 0.3456 -0.3365 0.9138 112.81 -1354.7706)" gradientUnits="userSpaceOnUse">
	<stop  offset="0" style="stop-color:#FFFEF2"/>
	<stop  offset="0.2727" style="stop-color:#F3982D"/>
	<stop  offset="0.3818" style="stop-color:#DE5411"/>
	<stop  offset="0.6" style="stop-color:#DD4D13"/>
	<stop  offset="0.8369" style="stop-color:#E60012"/>
</radialGradient>
<path fill="url(#SVGID_1_)" d="M24.6,16.305c0.08-0.006,0.158-0.013,0.235-0.021c-0.271-0.207-0.508-0.457-0.692-0.739
	c-0.422-0.638-0.603-1.435-0.438-2.24c0.026-0.139,0.065-0.274,0.112-0.406c0.005-0.012,0.009-0.021,0.013-0.034
	c0.049-0.134,0.108-0.266,0.183-0.394l0.014-0.027c0.094-0.164,0.174-0.337,0.24-0.514c0.063-0.17,0.115-0.348,0.151-0.527
	l0.004-0.021c0.199-0.979-0.02-1.949-0.53-2.727c-0.515-0.776-1.32-1.355-2.301-1.557l-0.003-0.001
	c-0.978-0.199-1.948,0.02-2.726,0.533c-0.771,0.51-1.35,1.309-1.555,2.276l-0.004,0.019c-0.016,0.084-0.023,0.143-0.029,0.183
	c-0.256,1.626,0.322,3.016,1.291,4.06c0.986,1.066,2.38,1.782,3.72,2.039c0.092,0.018,0.162,0.029,0.209,0.038
	C23.125,16.343,23.862,16.356,24.6,16.305 M13.949,23.273c-0.024-0.188-0.068-0.373-0.123-0.555
	c-0.058-0.185-0.127-0.357-0.211-0.529c-0.438-0.896-1.207-1.531-2.087-1.83c-0.885-0.301-1.879-0.268-2.774,0.174
	c-0.896,0.439-1.528,1.207-1.829,2.089c-0.303,0.881-0.27,1.873,0.17,2.771l0.002-0.002c0.023,0.054,0.055,0.104,0.086,0.163
	c0.793,1.441,2.099,2.188,3.502,2.421c1.437,0.241,2.976-0.043,4.19-0.655c0.06-0.028,0.121-0.063,0.188-0.104
	c0.61-0.338,1.259-0.825,1.849-1.371l0.03-0.023c-0.344,0.004-0.682-0.054-1.002-0.159c-0.723-0.246-1.353-0.771-1.715-1.507l0,0
	c-0.07-0.145-0.127-0.282-0.172-0.431c-0.048-0.146-0.08-0.298-0.104-0.444V23.273L13.949,23.273z M23.158,19.511l0.459-0.517
	c-0.226,0.071-0.455,0.135-0.687,0.19c-1.229,0.29-2.543,0.325-3.865,0.055c-0.375-0.075-0.739-0.176-1.094-0.295
	c0.024,0.039,0.047,0.076,0.069,0.113c0.474,0.785,0.813,1.608,1.026,2.449c0.146,0.563,0.229,1.133,0.263,1.705l0.058-0.037
	l0.021-0.019C20.658,22.331,21.912,20.915,23.158,19.511z M29.255,29.445c-1.379,0.361-5.745,0.681-6.95,0.412
	c1.77-1.211,3.981-1.729,5.067-4.09h0.002c0.009-0.02,0.019-0.033,0.024-0.051c0.369-0.604,0.619-1.105,0.828-1.529
	c0.563-1.137,0.869-1.754,2.252-2.26c0.562-0.205,1.191-0.236,1.773-0.103c0.52,0.121,1,0.373,1.369,0.748
	c0.377,0.388,0.633,0.896,0.688,1.521c0.049,0.582-0.08,1.263-0.461,2.021C33.1,27.615,31.262,28.788,29.255,29.445z M15.231,31.687
	c-2.006,0.904-4.737,1.124-7.229,0.48c-2.182-0.562-4.188-1.777-5.394-3.769c-1.289-2.131-1.594-4.582-1.041-6.824
	c0.551-2.24,1.957-4.273,4.088-5.563c1.52-0.918,3.199-1.336,4.854-1.301c0.926,0.02,1.84,0.182,2.713,0.477
	c-0.398-0.639-0.721-1.326-0.951-2.049c-0.453-1.421-0.563-2.974-0.242-4.538c0.498-2.439,1.937-4.448,3.859-5.722
	c1.926-1.273,4.336-1.813,6.775-1.314c2.441,0.496,4.449,1.937,5.723,3.86s1.813,4.336,1.314,6.775
	c-0.178,0.869-0.473,1.685-0.867,2.427c-0.043,0.08-0.086,0.157-0.129,0.235c1.529-0.668,3.162-0.955,4.75-0.885
	c2.328,0.103,4.563,0.97,6.238,2.533H39.69l0.018,0.014c0.701,0.703,1.232,1.488,1.617,2.322c0.889,1.93,0.963,4.109,0.461,6.16
	h-0.002c-0.498,2.033-1.57,3.942-2.979,5.35c-0.729,0.728-1.552,1.32-2.431,1.729c-1.389,0.814-3.131,1.313-4.944,1.631
	c-3.011,0.521-6.453,0.861-9.377-0.151c1.84-0.207,3.217-0.119,6.371-1.232c1.811-0.688,3.711-1.882,5.946-3.808
	c1.733-1.494,2.771-3.319,2.938-4.929c0.063-0.608,0.019-1.196-0.137-1.733c-0.146-0.528-0.398-1.013-0.752-1.416
	c-0.643-0.746-1.738-1.318-3.047-1.456c-3.234-0.336-4.779,1.327-6.936,3.652C23.246,26.095,19.518,29.751,15.231,31.687z"/>
</svg>
