<?xml version="1.0" encoding="utf-8"?>
<!-- Generator: Adobe Illustrator 14.0.0, SVG Export Plug-In . SVG Version: 6.00 Build 43363)  -->
<!DOCTYPE svg PUBLIC "-//W3C//DTD SVG 1.1//EN" "http://www.w3.org/Graphics/SVG/1.1/DTD/svg11.dtd">
<svg version="1.1" id="图层_1" xmlns="http://www.w3.org/2000/svg" xmlns:xlink="http://www.w3.org/1999/xlink" x="0px" y="0px"
	 width="102.669px" height="61.431px" viewBox="0 0 102.669 61.431" enable-background="new 0 0 102.669 61.431"
	 xml:space="preserve">
<path fill-rule="evenodd" fill-opacity='0.7' clip-rule="evenodd" fill="#4A4A4A" d="M20.264,57.869C8.982,57.33,0,48.015,0,36.601
	c0-10.735,7.945-19.613,18.274-21.08C20.617,6.589,28.743,0,38.409,0c6.64,0,12.554,3.109,16.365,7.95
	c3.588-4.038,8.819-6.584,14.646-6.584c10.82,0,19.589,8.771,19.589,19.589c0,0.695-0.037,1.381-0.107,2.057
	c7.979,2.502,13.768,9.954,13.768,18.759c0,10.856-8.8,19.656-19.655,19.656c-5.424,0-10.334-2.197-13.89-5.749
	c-3.102,2.777-7.596,4.523-12.597,4.523c-3.68,0-7.084-0.945-9.861-2.551c-3.341,2.326-8.091,3.78-13.362,3.78
	C28.199,61.431,23.584,60.067,20.264,57.869"/>
</svg>
