<?xml version="1.0" encoding="utf-8"?>
<!-- Generator: Adobe Illustrator 14.0.0, SVG Export Plug-In . SVG Version: 6.00 Build 43363)  -->
<!DOCTYPE svg PUBLIC "-//W3C//DTD SVG 1.1//EN" "http://www.w3.org/Graphics/SVG/1.1/DTD/svg11.dtd">
<svg version="1.1" id="图层_1" xmlns="http://www.w3.org/2000/svg" xmlns:xlink="http://www.w3.org/1999/xlink" x="0px" y="0px"
	 width="141.732px" height="32px" viewBox="0 56.366 141.732 32" enable-background="new 0 56.366 141.732 32" xml:space="preserve"
	>
<path d="M132.839,64.182l0.646-0.265l0.75-0.31l0.755-0.314l0.761-0.318l0.547-0.232l-0.293-0.688l-0.545,0.23l-0.759,0.319
	l-0.753,0.313l-0.747,0.31l-0.646,0.264L132.839,64.182z M128.661,65.843l0.43-0.167l0.72-0.28l0.725-0.286l0.73-0.291l0.733-0.295
	l0.146-0.06l-0.282-0.692l-0.145,0.058l-0.731,0.295l-0.729,0.29l-0.723,0.285l-0.717,0.281l-0.43,0.166L128.661,65.843z
	 M124.453,67.425l0.427-0.155l0.689-0.254l0.694-0.26l0.698-0.263l0.704-0.268l0.295-0.113l-0.269-0.698l-0.293,0.113l-0.702,0.267
	L126,66.056l-0.691,0.258l-0.688,0.253l-0.427,0.155L124.453,67.425z M120.213,68.919l0.636-0.217l0.658-0.228l0.665-0.232
	l0.67-0.236l0.675-0.24l0.232-0.084l-0.256-0.703l-0.229,0.083l-0.673,0.239l-0.667,0.236l-0.661,0.231l-0.657,0.227l-0.635,0.217
	L120.213,68.919z M115.937,70.314l0.429-0.134l0.625-0.199l0.631-0.203l0.636-0.207l0.642-0.211l0.604-0.202l-0.236-0.709
	l-0.603,0.201l-0.638,0.21l-0.633,0.206l-0.629,0.202l-0.623,0.197l-0.43,0.135L115.937,70.314z M111.624,71.596l0.493-0.141
	l0.593-0.17l0.599-0.175l0.602-0.178l0.606-0.183l0.61-0.187l0.095-0.029l-0.224-0.714l-0.09,0.027l-0.608,0.186l-0.604,0.181
	l-0.6,0.179l-0.595,0.174l-0.59,0.169l-0.493,0.14L111.624,71.596z M107.274,72.75l0.271-0.066l0.557-0.141l0.56-0.144l0.564-0.147
	l0.568-0.15l0.574-0.155l0.533-0.146l-0.2-0.721l-0.53,0.146l-0.569,0.153l-0.566,0.15l-0.562,0.146l-0.558,0.144l-0.553,0.14
	l-0.271,0.067L107.274,72.75z M102.886,73.753l0.382-0.08l0.519-0.11l0.523-0.115l0.526-0.118l0.533-0.122l0.537-0.126l0.541-0.129
	l0.098-0.022l-0.178-0.728l-0.095,0.022l-0.539,0.129l-0.533,0.124l-0.529,0.122l-0.523,0.116l-0.521,0.114l-0.515,0.111
	l-0.382,0.08L102.886,73.753z M98.458,74.581l0.341-0.056l0.479-0.081l0.483-0.085l0.486-0.088l0.492-0.092l0.496-0.095l0.502-0.098
	l0.411-0.083l-0.148-0.733l-0.408,0.082l-0.496,0.098l-0.493,0.095l-0.489,0.09l-0.483,0.088l-0.479,0.084l-0.477,0.08l-0.34,0.057
	L98.458,74.581z M93.992,75.196l0.257-0.028l0.437-0.051l0.439-0.054l0.444-0.058l0.448-0.06l0.452-0.063l0.456-0.064l0.463-0.069
	l0.326-0.051L97.6,73.96l-0.323,0.05l-0.458,0.068l-0.453,0.064l-0.448,0.063l-0.443,0.06l-0.44,0.057l-0.436,0.053l-0.433,0.051
	l-0.257,0.027L93.992,75.196z M89.494,75.547l0.241-0.012l0.39-0.02l0.395-0.022l0.396-0.025l0.402-0.026l0.406-0.031l0.409-0.033
	l0.414-0.036l0.419-0.039l0.276-0.026l-0.075-0.744l-0.271,0.027l-0.415,0.038l-0.41,0.035l-0.405,0.033l-0.401,0.03l-0.397,0.027
	l-0.393,0.023l-0.391,0.022l-0.385,0.021l-0.24,0.01L89.494,75.547z M84.975,75.563l0.064,0.003l0.337,0.012l0.341,0.01l0.347,0.009
	l0.349,0.005l0.354,0.003h0.355l0.361-0.002l0.365-0.004l0.368-0.009l0.373-0.009l0.151-0.005l-0.026-0.748l-0.146,0.005
	l-0.368,0.01l-0.364,0.008l-0.359,0.004l-0.356,0.002H86.77l-0.349-0.003l-0.345-0.005l-0.339-0.009l-0.336-0.01l-0.332-0.012
	l-0.065-0.003L84.975,75.563z M80.468,75.129l0.259,0.04l0.284,0.041l0.285,0.04l0.291,0.037l0.295,0.036l0.299,0.033l0.303,0.032
	l0.306,0.028l0.312,0.027l0.313,0.024l0.317,0.023l0.322,0.021l0.17,0.01l0.041-0.747l-0.165-0.01l-0.316-0.021l-0.312-0.022
	l-0.309-0.024l-0.305-0.027l-0.3-0.028l-0.297-0.03l-0.293-0.033l-0.288-0.035l-0.284-0.037l-0.281-0.038l-0.276-0.041l-0.258-0.039
	L80.468,75.129z M76.05,74.053l0.206,0.068l0.219,0.072l0.221,0.07l0.226,0.067l0.229,0.067l0.231,0.064l0.235,0.064l0.239,0.063
	l0.242,0.062l0.247,0.06l0.25,0.059l0.253,0.056l0.258,0.055l0.261,0.053l0.265,0.051L79.722,75l0.131-0.735l-0.085-0.017
	L79.51,74.2l-0.256-0.052l-0.25-0.053l-0.247-0.055l-0.242-0.057l-0.239-0.059l-0.235-0.059l-0.23-0.061l-0.229-0.063l-0.225-0.063
	l-0.221-0.065l-0.219-0.066l-0.214-0.066l-0.21-0.069l-0.205-0.07L76.05,74.053z M69.241,68.193l0.01,0.048l0.028,0.112l0.031,0.111
	l0.034,0.113l0.036,0.112l0.04,0.112l0.043,0.112l0.046,0.113l0.05,0.112l0.052,0.111l0.056,0.112l0.059,0.112l0.062,0.111
	l0.064,0.111l0.067,0.111l0.07,0.109l0.074,0.111l0.077,0.11l0.08,0.109l0.083,0.109l0.086,0.108l0.089,0.108l0.092,0.108
	l0.095,0.106l0.1,0.107l0.102,0.105l0.104,0.106l0.107,0.104l0.111,0.105l0.114,0.104l0.057,0.051l0.49-0.565l-0.048-0.042
	l-0.105-0.095l-0.102-0.097l-0.1-0.096l-0.095-0.096l-0.093-0.097l-0.089-0.098l-0.087-0.097l-0.083-0.097L70.972,70l-0.077-0.098
	l-0.074-0.098l-0.071-0.098l-0.067-0.098l-0.065-0.097l-0.063-0.099l-0.06-0.097l-0.057-0.097l-0.055-0.099l-0.051-0.097
	l-0.048-0.097l-0.045-0.098l-0.042-0.096l-0.04-0.096l-0.037-0.097l-0.034-0.095l-0.03-0.095l-0.029-0.097l-0.026-0.094
	l-0.022-0.094l-0.012-0.047L69.241,68.193z M70.972,63.895L70.95,63.91l-0.095,0.069l-0.093,0.069l-0.091,0.072l-0.088,0.074
	l-0.085,0.075l-0.083,0.077l-0.081,0.077l-0.079,0.08l-0.075,0.082l-0.074,0.083l-0.071,0.084l-0.068,0.086L69.9,64.926l-0.063,0.09
	l-0.061,0.09l-0.06,0.091l-0.055,0.092l-0.053,0.094l-0.05,0.096l-0.047,0.096l-0.046,0.097l-0.042,0.1l-0.039,0.1l-0.036,0.102
	l-0.034,0.101l-0.031,0.103l-0.028,0.104l-0.024,0.104l-0.022,0.104l-0.02,0.105l-0.017,0.106l-0.014,0.107l-0.011,0.106
	l-0.008,0.108l-0.005,0.108l-0.003,0.109l0.001,0.11l0.002,0.034l0.747-0.036l-0.001-0.017l-0.001-0.09l0.002-0.089l0.005-0.089
	l0.006-0.087l0.009-0.087l0.011-0.088l0.013-0.086l0.017-0.085l0.018-0.084l0.021-0.084l0.021-0.083l0.025-0.083l0.027-0.082
	l0.029-0.081l0.032-0.08l0.034-0.079l0.037-0.079l0.039-0.078l0.041-0.077l0.043-0.076l0.045-0.075l0.048-0.074l0.049-0.073
	l0.052-0.073l0.055-0.072l0.056-0.069l0.059-0.07l0.062-0.069l0.063-0.066l0.065-0.066l0.068-0.064L71,64.823l0.072-0.063
	l0.074-0.062l0.077-0.061l0.077-0.061l0.081-0.058l0.021-0.016L70.972,63.895z M75.58,63.461L75.58,63.461l-0.104-0.053
	l-0.106-0.049l-0.107-0.047l-0.11-0.044l-0.113-0.042l-0.115-0.039l-0.115-0.036l-0.119-0.034l-0.121-0.031l-0.124-0.027
	l-0.125-0.025l-0.127-0.022l-0.129-0.02l-0.132-0.017l-0.134-0.016l-0.135-0.011l-0.138-0.009l-0.139-0.006l-0.044-0.001
	L73.3,62.941l-0.137,0.029l-0.135,0.03l-0.133,0.033l-0.131,0.035l-0.13,0.038l-0.127,0.04l-0.125,0.042l-0.123,0.043l-0.119,0.046
	l-0.119,0.048l-0.117,0.05l-0.114,0.052l-0.111,0.055l-0.019,0.009l0.344,0.664l0.003-0.002l0.1-0.046l0.1-0.045l0.104-0.044
	l0.104-0.042l0.107-0.04l0.107-0.039l0.111-0.037l0.112-0.035l0.114-0.034l0.117-0.032l0.119-0.029l0.122-0.028l0.08-0.018
	l0.08,0.004l0.121,0.008l0.118,0.01l0.115,0.013l0.115,0.016l0.111,0.018l0.109,0.021l0.107,0.021l0.105,0.024l0.103,0.025
	l0.102,0.028l0.1,0.031l0.096,0.032l0.094,0.034l0.094,0.037l0.089,0.039l0.088,0.041l0.085,0.042h0.001L75.58,63.461z
	 M77.535,67.643l0.009-0.064l0.016-0.125l0.012-0.124l0.009-0.123l0.006-0.122l0.004-0.121v-0.121l-0.004-0.119l-0.006-0.118
	l-0.009-0.117l-0.012-0.116l-0.016-0.115l-0.018-0.113l-0.021-0.112l-0.022-0.111l-0.026-0.109l-0.028-0.108l-0.033-0.106
	l-0.034-0.106l-0.039-0.104l-0.041-0.103l-0.044-0.101l-0.047-0.1l-0.049-0.098l-0.054-0.096l-0.056-0.095l-0.059-0.092l-0.062-0.09
	l-0.063-0.088l-0.065-0.086l-0.069-0.084l-0.071-0.083l-0.074-0.081l-0.077-0.078l-0.08-0.076l-0.082-0.073l-0.06-0.049l-0.473,0.58
	l0.041,0.035l0.065,0.059l0.063,0.061l0.062,0.062l0.059,0.063l0.058,0.063l0.055,0.066l0.052,0.068L76.3,65.04l0.049,0.071
	l0.046,0.073l0.044,0.074l0.041,0.075l0.039,0.078l0.038,0.079l0.033,0.08l0.033,0.082l0.03,0.083l0.028,0.085l0.025,0.086
	l0.024,0.088l0.021,0.089l0.02,0.091l0.018,0.093l0.016,0.094l0.012,0.095l0.01,0.098l0.008,0.098l0.005,0.1l0.003,0.102v0.102
	l-0.003,0.104l-0.005,0.104l-0.008,0.105l-0.011,0.106l-0.013,0.108l-0.01,0.063L77.535,67.643z M75.522,71.819l0.064-0.081
	l0.11-0.139l0.105-0.14l0.104-0.139l0.1-0.139l0.099-0.14l0.094-0.138l0.09-0.138l0.088-0.139l0.084-0.137l0.082-0.138l0.077-0.138
	l0.075-0.137l0.072-0.136l0.068-0.136l0.065-0.136l0.063-0.135l0.061-0.135l0.057-0.134l0.056-0.135l0.05-0.133l0.048-0.133
	l0.045-0.132l0.042-0.132l0.038-0.131l0.015-0.055l-0.724-0.189l-0.011,0.04l-0.034,0.116l-0.037,0.118l-0.04,0.118l-0.043,0.12
	l-0.046,0.12l-0.049,0.121l-0.052,0.122l-0.055,0.123l-0.058,0.124l-0.062,0.124l-0.063,0.125l-0.066,0.125l-0.069,0.126
	l-0.071,0.126l-0.075,0.127l-0.078,0.127l-0.081,0.128l-0.085,0.128l-0.087,0.129l-0.091,0.129l-0.094,0.13l-0.098,0.13l-0.1,0.13
	l-0.104,0.132l-0.064,0.082L75.522,71.819z M72.141,74.907l0.021-0.016l0.187-0.134l0.184-0.134l0.179-0.135l0.177-0.135
	l0.173-0.136l0.168-0.137l0.166-0.136l0.162-0.136l0.157-0.139l0.155-0.137l0.152-0.138l0.133-0.123l0.116,0.056l0.184,0.085
	L74.64,73.5l0.188,0.083l0.193,0.081l0.197,0.079l0.112,0.045l0.27-0.698l-0.105-0.041l-0.188-0.076l-0.187-0.077l-0.182-0.079
	l-0.178-0.079l-0.04-0.02l0.009-0.009l0.132-0.139l0.129-0.139L75.02,72.4l-0.559-0.498l-0.021,0.022l-0.122,0.133l-0.125,0.132
	l-0.129,0.132l-0.05,0.049l-0.092-0.048l-0.157-0.086l-0.153-0.086l-0.151-0.087l-0.146-0.089l-0.145-0.088l-0.141-0.091
	l-0.137-0.09l-0.136-0.091l-0.131-0.092l-0.126-0.09l-0.092-0.069l-0.442,0.603l0.092,0.068l0.137,0.099l0.14,0.1l0.145,0.097
	l0.146,0.096l0.15,0.097l0.151,0.095l0.156,0.093l0.16,0.094l0.163,0.091l0.038,0.021L73.37,72.98l-0.147,0.131l-0.152,0.131
	l-0.155,0.131l-0.159,0.131l-0.161,0.131l-0.166,0.131l-0.17,0.13l-0.173,0.129l-0.176,0.129l-0.18,0.129l-0.021,0.016
	L72.141,74.907z M68.198,77.175l0.01-0.005l0.25-0.119l0.247-0.119l0.243-0.121l0.239-0.122l0.235-0.123l0.232-0.124l0.229-0.125
	l0.226-0.126l0.222-0.127l0.218-0.127l0.215-0.128l0.21-0.129l0.207-0.131l0.202-0.131l0.131-0.084L71.1,74.71l-0.123,0.08
	l-0.197,0.127l-0.201,0.125l-0.204,0.125l-0.208,0.124l-0.211,0.124l-0.215,0.123l-0.219,0.122L69.3,75.783l-0.226,0.12l-0.229,0.12
	l-0.233,0.119l-0.236,0.117l-0.24,0.117l-0.244,0.116l-0.012,0.005L68.198,77.175z M63.978,78.829l0.026-0.009l0.308-0.102
	l0.303-0.103l0.299-0.104l0.295-0.105l0.292-0.106l0.288-0.106l0.284-0.108l0.28-0.109l0.275-0.111l0.272-0.113l0.269-0.112
	l0.266-0.115l0.076-0.033l-0.308-0.683l-0.069,0.03l-0.259,0.112l-0.263,0.111l-0.267,0.108l-0.271,0.109l-0.274,0.108l-0.277,0.105
	L65.241,77.6l-0.286,0.104l-0.29,0.104l-0.293,0.102l-0.297,0.101l-0.301,0.1l-0.027,0.009L63.978,78.829z M59.609,80l0.048-0.011
	l0.358-0.08l0.354-0.081l0.352-0.084l0.346-0.085l0.342-0.087l0.338-0.089l0.334-0.09l0.331-0.093l0.326-0.094l0.323-0.095
	l0.196-0.062l-0.219-0.715l-0.191,0.06l-0.317,0.093l-0.321,0.092l-0.325,0.091l-0.328,0.089l-0.333,0.088l-0.338,0.086
	l-0.341,0.084L60.199,79.1l-0.349,0.08l-0.354,0.078l-0.048,0.012L59.609,80z M55.162,80.785l0.285-0.039l0.403-0.06l0.398-0.062
	l0.396-0.063l0.391-0.065l0.387-0.065l0.383-0.069l0.379-0.07l0.375-0.071l0.313-0.063l-0.149-0.732l-0.31,0.063l-0.369,0.071
	l-0.374,0.069l-0.378,0.067l-0.382,0.065l-0.386,0.064l-0.391,0.063l-0.394,0.061l-0.398,0.058l-0.284,0.04L55.162,80.785z
	 M50.673,81.25l0.06-0.004l0.45-0.034l0.444-0.036l0.441-0.038l0.438-0.041l0.434-0.045l0.429-0.046l0.424-0.048l0.42-0.05
	l0.204-0.025l-0.096-0.741l-0.199,0.023l-0.416,0.05l-0.419,0.049l-0.424,0.045l-0.429,0.043L52,80.392l-0.437,0.038l-0.441,0.035
	L50.677,80.5l-0.06,0.004L50.673,81.25z M46.17,81.448l0.316-0.005l0.489-0.012l0.484-0.016l0.48-0.017l0.476-0.021l0.473-0.021
	l0.467-0.024l0.463-0.026l0.105-0.008l-0.05-0.745l-0.102,0.007l-0.458,0.025l-0.463,0.024l-0.469,0.021l-0.472,0.021l-0.476,0.016
	l-0.481,0.016l-0.484,0.011L46.155,80.7L46.17,81.448z M41.664,81.417l0.218,0.006l0.529,0.015l0.525,0.011l0.521,0.008l0.517,0.004
	l0.512,0.002h0.507l0.426-0.003l-0.007-0.749l-0.422,0.004h-0.503l-0.507-0.002l-0.513-0.004L42.949,80.7l-0.521-0.011l-0.525-0.014
	l-0.218-0.007L41.664,81.417z M37.167,81.189l0.314,0.021l0.565,0.037l0.563,0.034l0.557,0.03l0.554,0.027l0.548,0.025l0.543,0.021
	l0.105,0.004l0.024-0.747l-0.103-0.004l-0.54-0.021l-0.544-0.025l-0.548-0.026l-0.554-0.031l-0.558-0.034l-0.563-0.037l-0.313-0.021
	L37.167,81.189z M32.682,80.789l0.1,0.011l0.604,0.063l0.599,0.06l0.595,0.058l0.589,0.053l0.585,0.05l0.58,0.047l0.085,0.008
	l0.055-0.747l-0.082-0.007l-0.576-0.046l-0.582-0.05l-0.586-0.053l-0.59-0.056l-0.597-0.061l-0.601-0.063l-0.101-0.012
	L32.682,80.789z M28.216,80.235l0.205,0.029l0.638,0.087l0.633,0.083l0.628,0.08l0.623,0.075l0.618,0.073l0.377,0.043l0.083-0.744
	l-0.374-0.042l-0.615-0.072l-0.62-0.075l-0.625-0.08l-0.629-0.083l-0.634-0.086l-0.206-0.029L28.216,80.235z M23.77,79.546
	l0.055,0.011l0.671,0.11l0.667,0.109l0.662,0.104l0.657,0.102l0.651,0.098l0.342,0.05l0.104-0.739l-0.338-0.051l-0.649-0.097
	l-0.652-0.101l-0.658-0.104l-0.664-0.106l-0.668-0.111l-0.055-0.01L23.77,79.546z M19.346,78.736l0.347,0.068l0.701,0.135
	l0.695,0.131l0.691,0.127l0.686,0.124l0.563,0.099l0.128-0.736l-0.561-0.1l-0.684-0.122l-0.688-0.127l-0.693-0.13l-0.698-0.135
	l-0.347-0.068L19.346,78.736z M14.944,77.816l0.437,0.097l0.731,0.158l0.726,0.155l0.722,0.149l0.716,0.146l0.335,0.066l0.146-0.733
	l-0.332-0.066l-0.713-0.146l-0.718-0.15l-0.724-0.154l-0.729-0.157l-0.437-0.097L14.944,77.816z M10.564,76.795l0.322,0.079
	l0.762,0.185l0.757,0.179l0.751,0.176l0.747,0.171l0.309,0.069l0.163-0.73l-0.307-0.068l-0.744-0.17l-0.749-0.176l-0.754-0.178
	l-0.759-0.183l-0.322-0.079L10.564,76.795z M6.208,75.685L7,75.894l0.787,0.205l0.783,0.199l0.778,0.196l0.488,0.121l0.18-0.727
	l-0.487-0.12l-0.775-0.196l-0.779-0.199L7.188,75.17l-0.791-0.209L6.208,75.685z M1.314,73.982l3.827,3.4l1.19-4.423L1.314,73.982z
	 M136.984,62.449l0.3-0.128l0.775-0.334l0.78-0.339l0.786-0.344l0.791-0.35l-0.303-0.685l-0.789,0.349l-0.784,0.343l-0.777,0.338
	l-0.774,0.333l-0.299,0.128L136.984,62.449z"/>
</svg>
