<?xml version="1.0" encoding="utf-8"?>
<!-- Generator: Adobe Illustrator 14.0.0, SVG Export Plug-In . SVG Version: 6.00 Build 43363)  -->
<!DOCTYPE svg PUBLIC "-//W3C//DTD SVG 1.1//EN" "http://www.w3.org/Graphics/SVG/1.1/DTD/svg11.dtd">
<svg version="1.1" id="图层_1" xmlns="http://www.w3.org/2000/svg" xmlns:xlink="http://www.w3.org/1999/xlink" x="0px" y="0px"
	 width="129.313px" height="73.575px" viewBox="6.118 33.151 129.313 73.575" enable-background="new 6.118 33.151 129.313 73.575"
	 xml:space="preserve">
<g>
	<path fill="#221916" d="M133.103,39.912v-0.01l0.339-0.674l0.338-0.677l0.329-0.686l0.328-0.697l0.339-0.696l0.327-0.706
		l0.328-0.719l-1.007-0.438l-0.315,0.718l-0.329,0.697l-0.329,0.696l-0.325,0.685l-0.341,0.686l-0.328,0.677l-0.327,0.664
		L133.103,39.912z M6.118,103.361l6.661,3.365l0.033-2.745h0.426l0.011-1.069h-0.427l0.033-2.745L6.118,103.361z M14.332,103.994
		h0.284h1.062h1.061l1.049-0.013l1.028-0.011l0.995-0.011L19.8,102.89l-0.995,0.011l-1.027,0.012l-1.05,0.009h-1.05h-1.062
		L14.332,103.994z M20.916,103.939l0.951-0.031l0.996-0.022l0.995-0.042l0.973-0.03l0.974-0.044l0.591-0.033l-0.056-1.071
		l-0.59,0.031l-0.962,0.044l-0.974,0.033l-0.985,0.042l-0.995,0.021L20.916,103.939z M27.488,103.681l0.229-0.009l0.94-0.055
		l0.93-0.063l0.918-0.063l0.918-0.067l0.908-0.063l0.624-0.055l-0.099-1.07l-0.612,0.052l-0.908,0.067l-0.906,0.072l-0.918,0.055
		l-0.92,0.063l-0.939,0.056L27.488,103.681z M34.05,103.211l0.065-0.011l0.875-0.074l0.875-0.086l0.854-0.096l0.853-0.086
		l0.842-0.108l0.832-0.097l0.263-0.031l-0.143-1.063l-0.251,0.03l-0.832,0.1l-0.831,0.096l-0.853,0.096l-0.854,0.088l-0.864,0.084
		l-0.863,0.086L34.05,103.211z M40.59,102.482l0.295-0.042l0.81-0.108l0.798-0.117l0.799-0.117l0.776-0.117l0.777-0.13l0.765-0.127
		l0.405-0.077l-0.187-1.05l-0.405,0.076l-0.765,0.116l-0.766,0.13l-0.777,0.117l-0.776,0.119l-0.798,0.114l-0.798,0.107
		L40.59,102.482z M47.097,101.455h0.021l0.732-0.14l0.732-0.141l0.723-0.14l0.722-0.15l0.7-0.149l0.699-0.159l0.699-0.15
		l0.351-0.085l-0.263-1.04l-0.338,0.073l-0.688,0.163l-0.689,0.148l-0.7,0.149l-0.711,0.149l-0.711,0.141l-0.731,0.141l-0.733,0.14
		L47.097,101.455z M53.55,100.084l0.603-0.151l0.656-0.161l0.646-0.171l0.646-0.183l0.634-0.171l0.634-0.182l0.613-0.185
		l0.612-0.182l0.252-0.073l-0.34-1.019l-0.229,0.072l-0.613,0.185l-0.613,0.173l-0.61,0.182l-0.635,0.172l-0.635,0.172l-0.645,0.169
		l-0.646,0.162L53.55,100.084z M59.882,98.293l0.505-0.161l0.578-0.191l0.58-0.191l0.568-0.207l0.558-0.2l0.547-0.204l0.548-0.202
		l0.535-0.207l0.536-0.213l0.22-0.083l-0.427-0.998l-0.208,0.086l-0.523,0.213l-0.525,0.204l-0.536,0.205l-0.547,0.204l-0.547,0.189
		l-0.558,0.191l-0.569,0.193l-0.58,0.194L59.882,98.293z M66.073,96.001l0.306-0.13l0.503-0.224l0.492-0.215l0.493-0.227
		l0.481-0.223l0.471-0.229l0.47-0.226l0.459-0.234l0.449-0.234l0.448-0.227l0.383-0.205l-0.537-0.94l-0.36,0.203l-0.438,0.228
		l-0.448,0.225l-0.449,0.225l-0.459,0.226l-0.47,0.227l-0.471,0.224l-0.471,0.215l-0.492,0.213l-0.492,0.216L66.073,96.001z
		 M71.989,93.097l0.372-0.214l0.416-0.248L73.18,92.4l0.395-0.244l0.395-0.246l0.395-0.247l0.382-0.248l0.372-0.259l0.36-0.244
		l0.361-0.257l0.359-0.259l0.351-0.244l0.056-0.044l-0.667-0.847l-0.057,0.029l-0.338,0.248l-0.339,0.249l-0.351,0.244l-0.36,0.248
		l-0.361,0.244l-0.371,0.235l-0.383,0.246l-0.383,0.236l-0.394,0.246l-0.395,0.236l-0.404,0.234L71.989,93.097z M77.479,89.443
		l0.077-0.063l0.326-0.271l0.317-0.255l0.306-0.257l0.309-0.268l0.306-0.259l0.294-0.271l0.285-0.255l0.285-0.27l0.273-0.268
		l0.272-0.27l0.262-0.268l0.265-0.268l0.25-0.268l0.209-0.227l-0.81-0.718l-0.209,0.226l-0.239,0.258l-0.253,0.259l-0.25,0.254
		l-0.262,0.257l-0.276,0.26l-0.271,0.257l-0.274,0.257l-0.282,0.257l-0.295,0.247l-0.297,0.259l-0.306,0.254l-0.307,0.249
		l-0.316,0.257L77.479,89.443z M82.247,84.891l0.022-0.021l0.229-0.279l0.219-0.268l0.22-0.267l0.208-0.28l0.206-0.27l0.197-0.268
		l0.197-0.28l0.186-0.267l0.188-0.269l0.174-0.278l0.177-0.269l0.175-0.268l0.163-0.277l0.153-0.267l0.152-0.271l0.153-0.277
		l0.087-0.16l-0.961-0.494l-0.089,0.16l-0.144,0.257l-0.152,0.261l-0.152,0.255l-0.153,0.258l-0.164,0.259l-0.164,0.267
		l-0.174,0.257l-0.176,0.26l-0.175,0.268l-0.187,0.257l-0.197,0.257l-0.195,0.257l-0.208,0.271l-0.197,0.257l-0.218,0.256
		l-0.219,0.271L82.247,84.891z M85.855,79.371l0.089-0.189l0.12-0.269l0.12-0.271l0.107-0.269l0.109-0.268l0.1-0.268l0.098-0.268
		l0.1-0.267l0.088-0.259l0.087-0.268l0.076-0.258l0.076-0.27l0.077-0.258l0.064-0.257l0.066-0.257l0.054-0.257l0.012-0.032
		l0.23,0.032l0.261,0.03l0.274,0.032l0.263,0.022l0.175,0.021l0.088-1.07l-0.153-0.012l-0.263-0.032l-0.251-0.021l-0.263-0.032
		l-0.165-0.021l0.012-0.021l-1.083-0.15h-0.011l-0.229-0.044l-0.24-0.042l-0.241-0.055l-0.229-0.052l-0.229-0.055l-0.229-0.055
		l-0.23-0.063l-0.219-0.056l-0.229-0.063l-0.218-0.064l-0.221-0.072l-0.206-0.064l-0.22-0.078l-0.076-0.021l-0.361,1.009
		l0.076,0.031l0.229,0.075l0.23,0.063L83.8,74.44l0.23,0.074l0.229,0.063l0.24,0.063l0.24,0.063l0.241,0.055l0.241,0.055l0.25,0.063
		l0.253,0.055l0.24,0.042l0.251,0.044l-0.056,0.215l-0.054,0.246l-0.065,0.247l-0.066,0.234l-0.076,0.257l-0.076,0.246l-0.077,0.247
		l-0.087,0.246l-0.089,0.259l-0.098,0.244l-0.1,0.258l-0.098,0.245l-0.108,0.259l-0.108,0.258l-0.111,0.257l-0.098,0.194
		L85.855,79.371z M87.64,73.028l0.009-0.063l0.022-0.246l0.013-0.246l0.021-0.235l0.01-0.246v-0.236V71.52v-0.236v-0.236
		l-0.01-0.226l-0.013-0.235l-0.009-0.226l-0.022-0.226l-0.021-0.224l-0.023-0.227l-0.021-0.214l-0.031-0.226l-0.033-0.214
		l-0.043-0.213l-0.034-0.205L87.409,68.4l-0.044-0.203l-0.054-0.203l-0.056-0.204L87.2,67.585l-0.012-0.063l-1.049,0.298
		l0.011,0.054l0.055,0.185l0.044,0.182l0.043,0.193l0.044,0.191l0.044,0.194l0.033,0.191l0.032,0.193l0.033,0.203l0.021,0.204
		l0.033,0.204l0.021,0.203l0.021,0.204l0.012,0.216l0.01,0.213l0.013,0.215l0.011,0.213v0.215v0.227v0.215v0.225l-0.011,0.226
		l-0.013,0.224l-0.021,0.226l-0.021,0.236L87.64,73.028z M86.829,66.463l-0.011-0.021l-0.077-0.184l-0.076-0.182l-0.075-0.182
		l-0.075-0.173l-0.09-0.172l-0.088-0.17l-0.087-0.162l-0.088-0.17l-0.098-0.149l-0.099-0.162l-0.099-0.161l-0.098-0.15l-0.102-0.138
		l-0.107-0.151l-0.101-0.139l-0.108-0.14l-0.12-0.14l-0.107-0.128l-0.109-0.129l-0.12-0.129l-0.121-0.118l-0.12-0.117l-0.133-0.118
		L84.4,62.87l-0.129-0.105l-0.12-0.106l-0.133-0.097l-0.131-0.098l-0.143-0.095l-0.133-0.086l-0.142-0.085l-0.143-0.075
		l-0.087-0.054l-0.516,0.943l0.065,0.043l0.108,0.063l0.121,0.064l0.108,0.074l0.11,0.075l0.107,0.075l0.109,0.085l0.11,0.086
		l0.107,0.095l0.109,0.087l0.099,0.106l0.11,0.095l0.098,0.108l0.101,0.106l0.097,0.108l0.101,0.117l0.098,0.118l0.099,0.117
		l0.087,0.129l0.1,0.117l0.089,0.139l0.085,0.129l0.089,0.139l0.089,0.138l0.075,0.142l0.087,0.147l0.078,0.151l0.076,0.15
		l0.076,0.15l0.074,0.161l0.066,0.159l0.076,0.162l0.065,0.172L86.829,66.463z M82.116,61.619l-0.099-0.021l-0.153-0.043
		l-0.153-0.032l-0.163-0.022l-0.153-0.021l-0.152-0.021l-0.164-0.011h-0.152H80.76h-0.15l-0.166,0.011l-0.163,0.01l-0.153,0.022
		l-0.165,0.022l-0.162,0.03l-0.152,0.033l-0.164,0.042l-0.165,0.054l-0.163,0.043l-0.153,0.065l-0.164,0.053l-0.152,0.075
		l-0.164,0.076l-0.164,0.074L78.2,62.145l-0.153,0.084l-0.164,0.097l-0.151,0.097l-0.153,0.107l-0.142,0.105l-0.144,0.107
		l-0.143,0.108l-0.131,0.107l-0.131,0.118l-0.119,0.106l-0.123,0.117l-0.031,0.032l0.809,0.718h0.013l0.087-0.096l0.109-0.097
		l0.099-0.095l0.12-0.088l0.107-0.095l0.121-0.086l0.132-0.097l0.132-0.084l0.131-0.085l0.132-0.075l0.132-0.075l0.13-0.064
		L79,62.95l0.132-0.064l0.12-0.053l0.131-0.055l0.132-0.042l0.132-0.043l0.119-0.032l0.132-0.033l0.132-0.031l0.12-0.021
		l0.131-0.021l0.12-0.011l0.132-0.011l0.12-0.011h0.12h0.12h0.132l0.12,0.011l0.12,0.011l0.121,0.021l0.119,0.021l0.12,0.022
		l0.12,0.021l0.099,0.033L82.116,61.619z M75.881,64.276l-0.009,0.021l-0.077,0.127l-0.065,0.13l-0.065,0.14L75.6,64.821
		l-0.057,0.139L75.5,65.102l-0.045,0.139l-0.043,0.128l-0.034,0.149l-0.03,0.14l-0.021,0.139l-0.022,0.141l-0.021,0.139l-0.01,0.151
		v0.139v0.138v0.151l0.01,0.139l0.011,0.141l0.012,0.149l0.022,0.141l0.032,0.138l0.021,0.151l0.045,0.139l0.032,0.14L75.5,67.94
		l0.056,0.14l0.044,0.139l0.053,0.14l0.067,0.139l0.063,0.139l0.065,0.141l0.066,0.14l0.076,0.141l0.087,0.138l0.076,0.14
		l0.088,0.128l0.087,0.141l0.099,0.129l0.099,0.128l0.876-0.633l-0.076-0.105l-0.088-0.119l-0.076-0.119l-0.076-0.115l-0.065-0.108
		l-0.065-0.117l-0.064-0.118l-0.057-0.116l-0.063-0.118l-0.045-0.118l-0.056-0.108l-0.045-0.116l-0.042-0.118l-0.034-0.106
		l-0.042-0.118l-0.022-0.117l-0.033-0.106l-0.021-0.119l-0.021-0.107l-0.021-0.105l-0.012-0.117l-0.01-0.106v-0.108v-0.108v-0.115
		V66.28l0.01-0.106l0.012-0.107l0.012-0.098l0.021-0.104l0.021-0.108l0.031-0.105l0.022-0.108l0.031-0.096l0.044-0.107l0.045-0.096
		l0.044-0.107l0.044-0.096l0.054-0.107l0.057-0.097L75.881,64.276z M77.272,70.737l0.043,0.043l0.12,0.128l0.132,0.116l0.13,0.13
		l0.141,0.117l0.145,0.128l0.142,0.119l0.146,0.117l0.151,0.118l0.152,0.117l0.152,0.119l0.153,0.106l0.164,0.116l0.165,0.108
		l0.162,0.117l0.176,0.106l0.176,0.106l0.175,0.106l0.186,0.107l0.177,0.097l0.185,0.106l0.198,0.097l0.186,0.096l0.197,0.098
		l0.196,0.097l0.195,0.097l0.209,0.088l0.196,0.084l0.164,0.074l0.427-0.995l-0.153-0.055l-0.185-0.086l-0.197-0.085l-0.187-0.086
		l-0.187-0.087l-0.174-0.095l-0.188-0.086l-0.176-0.099l-0.176-0.096l-0.164-0.096l-0.163-0.098L80.3,71.74l-0.165-0.097
		l-0.151-0.108l-0.165-0.095l-0.143-0.107l-0.151-0.095l-0.144-0.108l-0.143-0.107l-0.143-0.104l-0.132-0.108l-0.143-0.106
		l-0.12-0.118l-0.131-0.106l-0.12-0.106l-0.12-0.119l-0.12-0.105L78.1,70.028L77.272,70.737z M89.618,75.398l0.099,0.01h0.285
		l0.283,0.011h0.295h0.285h0.294l0.285-0.011l0.296-0.01l0.295-0.011l0.307-0.022l0.296-0.021l0.307-0.021l0.296-0.021l0.306-0.031
		l0.306-0.031l0.317-0.043l0.307-0.043l0.307-0.043l0.316-0.042l0.089-0.023L95,73.995l-0.077,0.012l-0.307,0.043l-0.294,0.042
		l-0.296,0.043l-0.295,0.033L93.436,74.2l-0.295,0.031l-0.296,0.033l-0.285,0.021l-0.294,0.022l-0.285,0.009l-0.284,0.012
		l-0.284,0.012L91.14,74.35h-0.285H90.58h-0.272l-0.273-0.011h-0.271L89.618,75.398z M96.279,74.852l0.086-0.023l0.318-0.063
		l0.327-0.074l0.317-0.076l0.329-0.075l0.326-0.087l0.328-0.084l0.328-0.086l0.328-0.097l0.328-0.098l0.34-0.106l0.327-0.106
		l0.338-0.119l0.328-0.105l0.341-0.128l0.34-0.118l0.283-0.106l-0.396-0.994l-0.283,0.096l-0.315,0.128l-0.329,0.105l-0.329,0.118
		l-0.326,0.106l-0.317,0.107l-0.317,0.098l-0.328,0.096l-0.317,0.097l-0.315,0.086L97.7,73.426l-0.318,0.075l-0.305,0.076
		L96.76,73.65l-0.308,0.064l-0.307,0.064L96.279,74.852z M102.622,72.881l0.056-0.022l0.339-0.149l0.351-0.148l0.338-0.151
		l0.352-0.159l0.339-0.173l0.35-0.159l0.351-0.182l0.351-0.173l0.351-0.192l0.35-0.182l0.35-0.193l0.354-0.205l0.349-0.203
		l0.351-0.204l-0.568-0.91l-0.339,0.192l-0.34,0.205l-0.341,0.192l-0.348,0.182l-0.339,0.183l-0.34,0.183l-0.341,0.172l-0.338,0.171
		l-0.34,0.171l-0.339,0.161l-0.328,0.15l-0.338,0.149l-0.329,0.15l-0.339,0.138L102.622,72.881z M108.483,69.806l0.131-0.088
		l0.362-0.224l0.351-0.235l0.36-0.236l0.35-0.246l0.36-0.256l0.36-0.247l0.351-0.268l0.359-0.267l0.361-0.269l0.359-0.278
		l0.362-0.279l0.361-0.29l0.032-0.021l-0.712-0.824l-0.021,0.021l-0.35,0.278l-0.353,0.278l-0.35,0.269l-0.35,0.269l-0.362,0.257
		l-0.35,0.256l-0.339,0.247l-0.351,0.246l-0.349,0.234l-0.352,0.236l-0.351,0.236l-0.35,0.215L108.483,69.806z M113.786,65.906
		l0.21-0.184l0.361-0.31l0.359-0.311l0.362-0.322l0.359-0.333l0.36-0.331l0.36-0.343l0.361-0.342l0.359-0.354l0.36-0.354
		l0.361-0.364l0.176-0.183l-0.787-0.738l-0.177,0.182l-0.361,0.354l-0.347,0.353l-0.354,0.343l-0.358,0.343l-0.353,0.331
		l-0.359,0.322l-0.352,0.321l-0.348,0.322l-0.361,0.31l-0.351,0.299L113.786,65.906z M118.546,61.394l0.144-0.16l0.358-0.385
		l0.361-0.396l0.36-0.397l0.36-0.407l0.361-0.406l0.361-0.418l0.36-0.429l0.349-0.429l0.361-0.438l0.196-0.247l-0.863-0.654
		l-0.187,0.236l-0.35,0.428l-0.36,0.418l-0.352,0.418l-0.36,0.418l-0.351,0.406l-0.35,0.397l-0.36,0.396l-0.351,0.387l-0.361,0.386
		L118.546,61.394z M122.8,56.434l0.196-0.258l0.36-0.471l0.36-0.471l0.353-0.473l0.358-0.482l0.361-0.493l0.351-0.492l0.351-0.515
		l0.36-0.504l0.151-0.225l-0.917-0.589l-0.143,0.214l-0.352,0.504l-0.35,0.502l-0.35,0.482l-0.352,0.492l-0.35,0.471l-0.362,0.473
		l-0.348,0.461l-0.352,0.461L122.8,56.434z M126.606,51.152l0.306-0.45l0.351-0.536l0.35-0.547l0.351-0.557l0.351-0.558l0.352-0.567
		l0.338-0.579l0.351-0.578l0.132-0.225l-0.952-0.525l-0.12,0.215l-0.349,0.578l-0.342,0.568l-0.348,0.559l-0.342,0.557l-0.349,0.548
		l-0.352,0.534l-0.351,0.536L126.606,51.152z M130.029,45.624l0.01-0.021l0.351-0.611l0.34-0.61l0.339-0.61l0.35-0.632l0.341-0.634
		l0.338-0.643l0.34-0.643l0.175-0.343l-0.974-0.481l-0.176,0.342l-0.338,0.643l-0.34,0.634l-0.339,0.619l-0.339,0.622l-0.34,0.611
		l-0.338,0.611l-0.34,0.588L130.029,45.624z"/>
</g>
</svg>
