<?xml version="1.0" encoding="utf-8"?>
<!-- Generator: Adobe Illustrator 14.0.0, SVG Export Plug-In . SVG Version: 6.00 Build 43363)  -->
<!DOCTYPE svg PUBLIC "-//W3C//DTD SVG 1.1//EN" "http://www.w3.org/Graphics/SVG/1.1/DTD/svg11.dtd">
<svg version="1.1" id="图层_1" xmlns="http://www.w3.org/2000/svg" xmlns:xlink="http://www.w3.org/1999/xlink" x="0px" y="0px"
	 width="141.732px" height="56.503px" viewBox="0 42.615 141.732 56.503" enable-background="new 0 42.615 141.732 56.503"
	 xml:space="preserve">
<path d="M133.252,49.785l0.276-0.368l0.409-0.551l0.408-0.558l0.406-0.563l0.407-0.57l0.299-0.424l-0.611-0.429l-0.298,0.42
	l-0.402,0.566l-0.405,0.56l-0.406,0.554l-0.405,0.549l-0.276,0.367L133.252,49.785z M130.469,53.327l0.173-0.21l0.414-0.511
	l0.414-0.518l0.412-0.521l0.413-0.528l0.411-0.534l0.092-0.12l-0.597-0.45l-0.089,0.116l-0.409,0.53l-0.409,0.525l-0.411,0.519
	l-0.409,0.514l-0.412,0.508l-0.172,0.209L130.469,53.327z M127.535,56.745l0.188-0.207l0.419-0.473l0.418-0.479l0.418-0.481
	l0.417-0.489l0.416-0.494l0.182-0.217l-0.577-0.477l-0.178,0.214l-0.414,0.49l-0.414,0.485l-0.414,0.479l-0.415,0.474l-0.416,0.469
	l-0.186,0.207L127.535,56.745z M124.447,60.025l0.33-0.335l0.422-0.435l0.421-0.438l0.421-0.445l0.421-0.451l0.42-0.455l0.15-0.164
	l-0.556-0.502l-0.146,0.161l-0.418,0.452l-0.417,0.447l-0.417,0.44l-0.419,0.437l-0.418,0.431l-0.329,0.335L124.447,60.025z
	 M121.2,63.152l0.193-0.177l0.424-0.394l0.424-0.396l0.423-0.403l0.423-0.408l0.423-0.413l0.406-0.401l-0.526-0.53l-0.403,0.399
	l-0.419,0.408l-0.42,0.405l-0.419,0.399l-0.42,0.395l-0.421,0.389l-0.193,0.178L121.2,63.152z M117.793,66.104l0.209-0.171
	l0.426-0.354l0.424-0.356l0.424-0.362l0.424-0.368l0.424-0.372l0.425-0.377l0.099-0.088l-0.503-0.554l-0.096,0.085l-0.42,0.374
	l-0.421,0.369l-0.42,0.363l-0.42,0.359l-0.42,0.354l-0.421,0.35l-0.208,0.171L117.793,66.104z M114.227,68.861l0.389-0.284
	l0.423-0.313l0.423-0.319l0.423-0.323l0.425-0.329l0.423-0.333l0.425-0.338l0.056-0.046l-0.473-0.58l-0.052,0.042l-0.42,0.334
	l-0.42,0.33l-0.419,0.324l-0.42,0.321l-0.419,0.314l-0.419,0.312l-0.389,0.283L114.227,68.861z M110.499,71.403l0.326-0.209
	l0.42-0.272l0.42-0.276l0.42-0.282l0.421-0.286l0.421-0.291l0.423-0.295l0.267-0.189l-0.436-0.607l-0.264,0.187l-0.417,0.292
	l-0.417,0.289l-0.417,0.283l-0.415,0.279l-0.416,0.273l-0.415,0.271l-0.326,0.209L110.499,71.403z M106.616,73.704l0.045-0.024
	l0.414-0.229l0.414-0.234l0.415-0.236l0.415-0.241l0.417-0.246l0.416-0.251l0.417-0.255l0.292-0.181l-0.396-0.636l-0.286,0.18
	l-0.413,0.252l-0.412,0.248l-0.411,0.242l-0.412,0.239l-0.409,0.235l-0.41,0.229l-0.409,0.228l-0.046,0.024L106.616,73.704z
	 M102.588,75.735l0.389-0.181l0.405-0.192l0.407-0.196l0.407-0.2l0.409-0.203l0.409-0.208l0.41-0.213l0.411-0.217l0.118-0.063
	l-0.354-0.657l-0.114,0.061l-0.406,0.216l-0.405,0.21l-0.404,0.205l-0.404,0.201l-0.403,0.198l-0.4,0.193l-0.401,0.189l-0.389,0.181
	L102.588,75.735z M98.419,77.472l0.159-0.061l0.396-0.148l0.396-0.154l0.396-0.157l0.397-0.161l0.398-0.165l0.398-0.169l0.401-0.173
	l0.402-0.176l0.138-0.063l-0.309-0.682l-0.133,0.06l-0.396,0.176l-0.396,0.17l-0.395,0.167l-0.396,0.163l-0.393,0.158l-0.393,0.155
	l-0.39,0.151l-0.39,0.147l-0.16,0.061L98.419,77.472z M94.127,78.882l0.201-0.058l0.379-0.11l0.381-0.113l0.384-0.118l0.384-0.121
	l0.385-0.125l0.387-0.128l0.389-0.132l0.389-0.137l0.309-0.108l-0.254-0.704l-0.303,0.107l-0.384,0.135l-0.383,0.13l-0.383,0.126
	l-0.38,0.124l-0.378,0.119l-0.378,0.115l-0.376,0.112l-0.374,0.11l-0.2,0.057L94.127,78.882z M89.73,79.93l0.168-0.032l0.359-0.071
	l0.361-0.075l0.363-0.078l0.365-0.081l0.365-0.085l0.369-0.087l0.369-0.091l0.372-0.095l0.373-0.098l0.203-0.055l-0.197-0.722
	l-0.197,0.053l-0.367,0.096l-0.366,0.095l-0.364,0.089l-0.363,0.087l-0.36,0.083l-0.36,0.08l-0.357,0.077l-0.355,0.072l-0.354,0.071
	l-0.168,0.031L89.73,79.93z M85.254,80.573l0.138-0.013l0.335-0.033l0.337-0.037l0.339-0.039l0.342-0.042l0.342-0.045l0.347-0.048
	l0.347-0.051l0.349-0.055l0.352-0.057l0.354-0.061l0.159-0.027l-0.133-0.736l-0.154,0.027l-0.348,0.06l-0.345,0.056l-0.345,0.054
	l-0.341,0.05l-0.34,0.047l-0.337,0.044l-0.336,0.041l-0.333,0.039l-0.331,0.036l-0.329,0.033l-0.138,0.013L85.254,80.573z
	 M80.73,80.751l0.205,0.004l0.303,0.002h0.306l0.31-0.002l0.31-0.005l0.313-0.008l0.313-0.01l0.317-0.014l0.32-0.015l0.32-0.018
	l0.324-0.021l0.326-0.022l0.104-0.009l-0.061-0.745l-0.099,0.008l-0.319,0.021l-0.318,0.021l-0.315,0.018l-0.314,0.016l-0.312,0.013
	l-0.31,0.01l-0.307,0.007l-0.306,0.005l-0.302,0.002h-0.3l-0.298-0.003l-0.204-0.003L80.73,80.751z M76.211,80.374l0.222,0.034
	l0.262,0.037l0.264,0.036l0.268,0.033l0.271,0.031l0.271,0.029l0.274,0.027l0.278,0.024l0.28,0.022l0.282,0.021l0.285,0.02
	l0.288,0.017l0.291,0.015l0.228,0.01l0.026-0.748l-0.221-0.009l-0.284-0.015l-0.282-0.017l-0.278-0.02l-0.277-0.021l-0.272-0.021
	l-0.271-0.024l-0.269-0.026l-0.268-0.029l-0.263-0.029l-0.261-0.033l-0.258-0.034l-0.255-0.037l-0.222-0.034L76.211,80.374z
	 M67.827,76.909l0.103,0.1l0.111,0.105l0.116,0.104l0.12,0.104l0.124,0.102l0.127,0.102l0.131,0.1l0.135,0.099l0.139,0.098
	l0.143,0.096l0.146,0.094l0.149,0.095l0.153,0.093l0.156,0.091l0.159,0.089l0.164,0.089l0.167,0.087l0.171,0.086l0.175,0.085
	l0.177,0.083l0.181,0.081l0.185,0.079l0.028,0.013l0.285-0.691l-0.02-0.008l-0.176-0.076l-0.171-0.077l-0.168-0.079l-0.165-0.079
	l-0.16-0.08L70.352,77.8l-0.154-0.083l-0.15-0.084l-0.146-0.085l-0.144-0.086l-0.139-0.086l-0.135-0.088l-0.13-0.088l-0.127-0.089
	l-0.124-0.09l-0.12-0.091l-0.115-0.092l-0.112-0.092l-0.106-0.093l-0.104-0.093l-0.1-0.095l-0.102-0.1L67.827,76.909z
	 M67.006,72.395l-0.025,0.043l-0.067,0.122l-0.062,0.122l-0.058,0.124l-0.052,0.124l-0.046,0.124l-0.042,0.125l-0.037,0.126
	l-0.031,0.126l-0.025,0.126l-0.021,0.126l-0.016,0.126l-0.01,0.127l-0.006,0.126v0.127l0.006,0.126l0.01,0.126l0.016,0.125
	l0.021,0.125l0.024,0.124l0.03,0.124l0.035,0.123l0.04,0.121l0.045,0.122l0.049,0.119l0.054,0.12l0.06,0.118l0.063,0.118
	l0.067,0.116l0.072,0.116l0.074,0.113l0.08,0.114l0.045,0.06l0.594-0.456l-0.032-0.043l-0.067-0.096l-0.063-0.097l-0.061-0.096
	l-0.055-0.098l-0.051-0.096l-0.047-0.096l-0.043-0.098l-0.039-0.096l-0.035-0.096l-0.031-0.098l-0.028-0.096l-0.022-0.096
	l-0.021-0.097l-0.016-0.096l-0.012-0.095l-0.008-0.098l-0.005-0.095v-0.096l0.005-0.097l0.007-0.097l0.012-0.096l0.016-0.097
	l0.021-0.098l0.023-0.098l0.028-0.097l0.033-0.099l0.037-0.099l0.041-0.098l0.045-0.101l0.051-0.099l0.054-0.101l0.026-0.043
	L67.006,72.395z M71.267,70.697l-0.083-0.021L71.07,70.65l-0.116-0.022l-0.117-0.018l-0.119-0.015l-0.12-0.011l-0.123-0.008
	l-0.124-0.003h-0.126l-0.127,0.004l-0.13,0.007l-0.131,0.013l-0.133,0.015l-0.134,0.019l-0.136,0.022l-0.138,0.026l-0.139,0.029
	l-0.141,0.034l-0.142,0.038l-0.144,0.041l-0.145,0.044l-0.146,0.049l-0.148,0.052L68.23,70.99l-0.051,0.044l-0.127,0.112
	l-0.123,0.112l-0.117,0.114l-0.113,0.115l-0.107,0.116l-0.103,0.116l-0.014,0.017l0.583,0.47l0.089-0.102l0.094-0.102l0.099-0.102
	l0.104-0.102l0.109-0.101l0.063-0.056l0.069-0.025l0.132-0.044l0.13-0.04l0.128-0.037l0.125-0.033l0.124-0.028l0.121-0.025
	l0.12-0.022l0.117-0.021l0.114-0.015l0.113-0.014l0.11-0.01l0.107-0.006l0.107-0.003h0.104l0.103,0.002l0.1,0.006l0.099,0.008
	l0.096,0.013l0.093,0.015l0.091,0.017l0.089,0.021l0.083,0.021L71.267,70.697z M73.696,74.612l0.001-0.054l-0.001-0.138
	l-0.003-0.135l-0.006-0.134l-0.009-0.132l-0.014-0.13l-0.014-0.128l-0.019-0.128l-0.02-0.124l-0.022-0.122l-0.024-0.121
	l-0.029-0.118l-0.031-0.117l-0.032-0.115l-0.037-0.111l-0.04-0.111l-0.042-0.108l-0.046-0.105l-0.048-0.104l-0.053-0.102
	l-0.054-0.101l-0.057-0.097l-0.06-0.095l-0.063-0.092L72.91,71.8l-0.068-0.087l-0.069-0.084L72.7,71.547l-0.076-0.078l-0.079-0.074
	l-0.081-0.073l-0.085-0.069l-0.086-0.065l-0.09-0.063l-0.092-0.06l-0.058-0.035l-0.374,0.647l0.033,0.021l0.068,0.045l0.067,0.047
	l0.063,0.05l0.063,0.053l0.061,0.054L72.097,72l0.058,0.061l0.055,0.062l0.055,0.063l0.052,0.065l0.051,0.069l0.048,0.071
	l0.046,0.072l0.045,0.076l0.042,0.078l0.041,0.081l0.038,0.083l0.037,0.086l0.034,0.088l0.032,0.091l0.029,0.094l0.028,0.095
	l0.026,0.098l0.022,0.101l0.021,0.104l0.02,0.104l0.019,0.106l0.015,0.108l0.013,0.11l0.011,0.113l0.008,0.115l0.005,0.117
	l0.003,0.119v0.121l-0.001,0.054L73.696,74.612z M72.63,78.758l0.067-0.146l0.076-0.171l0.072-0.169l0.067-0.169l0.067-0.168
	l0.063-0.166l0.062-0.166l0.057-0.164l0.055-0.164l0.053-0.161l0.048-0.161l0.046-0.16l0.042-0.158l0.04-0.156l0.037-0.156
	l0.033-0.154l0.03-0.152l0.028-0.152l0.024-0.15l0.021-0.148l0.021-0.147l0.002-0.019l-0.744-0.078l-0.001,0.006l-0.018,0.134
	l-0.021,0.138l-0.023,0.138l-0.024,0.14l-0.028,0.143L72.75,76.16l-0.034,0.146l-0.035,0.146l-0.04,0.147l-0.042,0.147l-0.045,0.151
	l-0.049,0.15l-0.052,0.153l-0.054,0.154l-0.058,0.155l-0.06,0.156l-0.063,0.158l-0.065,0.16l-0.068,0.16l-0.07,0.162l-0.075,0.161
	l-0.077,0.164l-0.055,0.112l0.146,0.07l-0.164,0.442l0.033,0.014l0.201,0.072l0.204,0.071l0.207,0.069l0.21,0.067l0.214,0.066
	l0.217,0.064l0.22,0.063l0.224,0.063l0.227,0.06l0.229,0.059l0.231,0.057l0.234,0.056l0.238,0.053l0.241,0.052l0.243,0.05
	l0.248,0.047l0.048,0.009l0.131-0.735l-0.042-0.009l-0.239-0.046l-0.237-0.048l-0.233-0.05l-0.23-0.051l-0.229-0.054L74.155,79.2
	l-0.221-0.056l-0.22-0.06l-0.216-0.059l-0.212-0.063l-0.209-0.063l-0.206-0.064l-0.202-0.064L72.63,78.758z M69.971,82.879
	l0.121-0.146l0.149-0.186l0.146-0.185l0.143-0.184l0.139-0.185l0.137-0.184l0.133-0.184l0.129-0.183l0.126-0.182l0.123-0.183
	l0.12-0.182l0.116-0.181l0.112-0.181l0.109-0.179l0.105-0.179l0.104-0.179l0.101-0.178l0.045-0.083l-0.656-0.356l-0.041,0.075
	l-0.097,0.17l-0.099,0.17l-0.102,0.172l-0.105,0.172l-0.109,0.174l-0.11,0.173l-0.115,0.174l-0.118,0.175l-0.122,0.176l-0.125,0.177
	l-0.128,0.176l-0.131,0.177l-0.134,0.179L69.8,81.899l-0.141,0.179l-0.145,0.179l-0.122,0.146L69.971,82.879z M66.771,86.112
	l0.047-0.041l0.212-0.186l0.208-0.185l0.205-0.186l0.202-0.187l0.196-0.186l0.194-0.187l0.19-0.186l0.187-0.187l0.184-0.187
	l0.18-0.187l0.176-0.186l0.173-0.188l0.17-0.186l0.166-0.187l0.016-0.018l-0.565-0.49l-0.01,0.013l-0.161,0.18l-0.165,0.181
	l-0.168,0.182l-0.171,0.18l-0.175,0.182l-0.179,0.182l-0.182,0.181l-0.186,0.181L67.327,84.6l-0.193,0.181l-0.195,0.181l-0.2,0.181
	l-0.203,0.181l-0.207,0.181l-0.047,0.04L66.771,86.112z M63.141,88.829l0.056-0.036l0.268-0.178l0.265-0.178l0.26-0.181l0.257-0.179
	l0.252-0.181l0.249-0.182l0.245-0.181l0.241-0.182l0.238-0.184l0.232-0.182l0.23-0.184l0.227-0.185l0.032-0.026l-0.479-0.574
	l-0.026,0.021l-0.222,0.18l-0.225,0.18l-0.229,0.178l-0.232,0.179l-0.236,0.179l-0.239,0.177L64.06,87.29l-0.247,0.176l-0.251,0.177
	l-0.255,0.176l-0.26,0.174l-0.263,0.174l-0.056,0.036L63.141,88.829z M59.222,91.092l0.142-0.071l0.318-0.165l0.313-0.167
	l0.312-0.167l0.306-0.169l0.303-0.17l0.299-0.171l0.295-0.173l0.291-0.172l0.287-0.173l0.283-0.175l0.134-0.085l-0.399-0.632
	l-0.129,0.081l-0.278,0.172l-0.281,0.17l-0.286,0.169l-0.29,0.169l-0.293,0.168l-0.297,0.166l-0.301,0.166l-0.305,0.165
	l-0.311,0.164l-0.313,0.162l-0.142,0.071L59.222,91.092z M55.104,92.958l0.12-0.048l0.367-0.15l0.364-0.149l0.359-0.153l0.354-0.153
	l0.353-0.155l0.347-0.157l0.343-0.158l0.338-0.159l0.334-0.16l0.164-0.08l-0.332-0.671l-0.158,0.077l-0.33,0.158l-0.333,0.157
	l-0.337,0.155l-0.343,0.154l-0.346,0.153l-0.35,0.151l-0.354,0.15l-0.358,0.148l-0.362,0.147l-0.12,0.049L55.104,92.958z
	 M50.848,94.471l0.053-0.018l0.414-0.132l0.411-0.134l0.404-0.137l0.402-0.137l0.397-0.14l0.393-0.141l0.389-0.143l0.385-0.144
	l0.306-0.117l-0.271-0.698l-0.301,0.115l-0.379,0.143l-0.383,0.141l-0.388,0.139l-0.394,0.138l-0.396,0.135l-0.4,0.136l-0.405,0.132
	l-0.409,0.13l-0.054,0.017L50.848,94.471z M46.498,95.672l0.02-0.004l0.459-0.111l0.454-0.114l0.449-0.117l0.445-0.118l0.44-0.12
	l0.436-0.123l0.432-0.124l0.428-0.127l0.07-0.021l-0.219-0.715l-0.065,0.02l-0.423,0.125l-0.427,0.123l-0.431,0.121l-0.437,0.119
	l-0.439,0.118l-0.445,0.114l-0.449,0.112l-0.454,0.111l-0.019,0.005L46.498,95.672z M42.084,96.597l0.104-0.019l0.499-0.092
	l0.495-0.095l0.489-0.098l0.485-0.1l0.481-0.103l0.477-0.104l0.472-0.105l0.182-0.041l-0.171-0.729l-0.177,0.04l-0.467,0.104
	l-0.472,0.104l-0.477,0.1l-0.479,0.1l-0.485,0.096l-0.49,0.094l-0.493,0.091l-0.104,0.02L42.084,96.597z M37.629,97.278l0.399-0.052
	l0.537-0.071l0.531-0.075l0.526-0.076l0.522-0.08l0.518-0.082l0.513-0.085l0.17-0.028l-0.13-0.736l-0.165,0.027l-0.508,0.084
	l-0.513,0.082l-0.518,0.079L38.99,96.34l-0.527,0.073l-0.531,0.071l-0.399,0.052L37.629,97.278z M33.148,97.739l0.419-0.034
	l0.574-0.05l0.569-0.053l0.564-0.057l0.561-0.059l0.556-0.062l0.491-0.058l-0.088-0.743l-0.486,0.058l-0.552,0.061L35.2,96.802
	l-0.56,0.057l-0.566,0.052l-0.57,0.05l-0.419,0.034L33.148,97.739z M28.651,98.003l0.145-0.005l0.613-0.025l0.608-0.028l0.604-0.033
	l0.6-0.035l0.593-0.038l0.584-0.04l-0.056-0.747l-0.578,0.041l-0.591,0.038l-0.594,0.034l-0.6,0.032l-0.604,0.029l-0.608,0.024
	l-0.146,0.006L28.651,98.003z M24.15,98.091h0.212l0.647-0.004l0.644-0.007l0.638-0.01l0.634-0.013l0.629-0.019l0.347-0.011
	l-0.025-0.747l-0.343,0.011l-0.625,0.018l-0.629,0.013l-0.635,0.011l-0.64,0.007l-0.645,0.003h-0.212L24.15,98.091z M19.649,98.019
	l0.033,0.002l0.684,0.02l0.679,0.019l0.675,0.014l0.669,0.01l0.662,0.007l0.351,0.002l0.002-0.748l-0.346-0.002l-0.66-0.007
	l-0.665-0.01l-0.67-0.014l-0.675-0.018l-0.681-0.021l-0.032-0.001L19.649,98.019z M15.155,97.802l0.313,0.021l0.716,0.042
	l0.709,0.038l0.705,0.036l0.698,0.03l0.603,0.023l0.027-0.747l-0.598-0.023l-0.696-0.031l-0.7-0.034l-0.706-0.039l-0.712-0.042
	l-0.313-0.02L15.155,97.802z M10.67,97.452l0.397,0.036l0.747,0.065l0.741,0.062l0.735,0.058l0.73,0.055l0.385,0.025l0.049-0.747
	l-0.38-0.025l-0.728-0.054l-0.733-0.058l-0.738-0.061l-0.743-0.065l-0.397-0.036L10.67,97.452z M3.753,96.351l4.309,2.767
	l0.205-1.904l0.53,0.057l0.763,0.077l0.364,0.034l0.07-0.744l-0.361-0.035l-0.76-0.076L8.347,96.47l0.206-1.905L3.753,96.351z
	 M135.889,46.137l0.082-0.118l0.402-0.587l0.403-0.594l0.401-0.6l0.399-0.606l0.4-0.61l-0.628-0.407l-0.397,0.608l-0.396,0.602
	l-0.399,0.596l-0.4,0.589l-0.4,0.583l-0.082,0.118L135.889,46.137z"/>
</svg>
